<svg width="67" height="64" viewBox="0 0 67 64" fill="none" xmlns="http://www.w3.org/2000/svg">
<path d="M36 11H65C66.1046 11 67 11.8954 67 13V61.0325C67 62.1243 66.1244 63.0144 65.0328 63.0322L36.5 63.5L36 11Z" fill="#EDECEC"/>
<path d="M36.5 63.5L29 50H45H46.5L36.5 63.5Z" fill="#264C8B"/>
<path d="M67 43L40 11H67V43Z" fill="#F0F0F0"/>
<path d="M50.848 23.824V26.488H60.592V23.824H50.848ZM50.032 32.176V34.888H63.28V32.176H50.032ZM55.096 29.368V41.92C55.096 42.256 54.976 42.352 54.592 42.376C54.184 42.4 52.936 42.376 51.712 42.328C52.096 43.096 52.576 44.344 52.72 45.136C54.496 45.16 55.816 45.064 56.776 44.632C57.712 44.176 58 43.408 58 41.968V29.368H55.096ZM59.56 23.824V24.448C58.84 25.888 57.184 28.264 55.768 29.632C56.224 30.016 57.016 30.808 57.4 31.312C59.272 29.728 61.312 27.184 62.728 25.096L60.856 23.68L60.256 23.824H59.56ZM40.888 27.4V30.064H48.64V27.4H40.888ZM44.104 22.624C43.36 27.4 42.064 33.736 41.032 37.528L43.384 38.776C44.512 34.456 45.904 28.024 46.816 22.912L44.104 22.624ZM42.28 37.12C44.8 38.776 47.848 41.296 49.192 43.12L50.92 40.792C49.528 38.992 46.36 36.664 43.864 35.104L42.28 37.12ZM47.656 27.4V27.928C47.176 35.512 45.04 40.816 40.96 42.952C41.536 43.504 42.304 44.536 42.688 45.232C47.44 42.28 49.768 36.976 50.32 27.616L48.616 27.328L48.112 27.4H47.656Z" fill="#737373"/>
<path d="M0 2C0 0.895432 0.895431 0 2 0H31.9532C32.8303 0 33.6051 0.571581 33.8641 1.40968L48.0745 47.4097C48.472 48.6962 47.5102 50 46.1636 50H2C0.89543 50 0 49.1046 0 48V2Z" fill="#4285F4"/>
<g filter="url(#filter0_d_51_14)">
<path d="M14.728 16.816H25.624V19.888H17.968V24.064H24.856V27.136H17.968V34H14.728V16.816Z" fill="white"/>
</g>
<defs>
<filter id="filter0_d_51_14" x="10.728" y="16.816" width="18.896" height="25.184" filterUnits="userSpaceOnUse" color-interpolation-filters="sRGB">
<feFlood flood-opacity="0" result="BackgroundImageFix"/>
<feColorMatrix in="SourceAlpha" type="matrix" values="0 0 0 0 0 0 0 0 0 0 0 0 0 0 0 0 0 0 127 0" result="hardAlpha"/>
<feOffset dy="4"/>
<feGaussianBlur stdDeviation="2"/>
<feComposite in2="hardAlpha" operator="out"/>
<feColorMatrix type="matrix" values="0 0 0 0 0 0 0 0 0 0 0 0 0 0 0 0 0 0 0.25 0"/>
<feBlend mode="normal" in2="BackgroundImageFix" result="effect1_dropShadow_51_14"/>
<feBlend mode="normal" in="SourceGraphic" in2="effect1_dropShadow_51_14" result="shape"/>
</filter>
</defs>
</svg>
