<svg width="131" height="19" viewBox="0 0 131 19" fill="none" xmlns="http://www.w3.org/2000/svg">
<path d="M5.376 18V3.888H0.576V0.816H13.416V3.888H8.616V18H5.376ZM13.9065 6.24H16.8585V7.872H17.0505C17.1945 7.584 17.3865 7.32 17.6265 7.08C17.8665 6.84 18.1305 6.632 18.4185 6.456C18.7225 6.28 19.0425 6.144 19.3785 6.048C19.7305 5.952 20.0745 5.904 20.4105 5.904C20.8265 5.904 21.1785 5.944 21.4665 6.024C21.7705 6.104 22.0265 6.208 22.2345 6.336L21.3945 9.192C21.2025 9.096 20.9865 9.024 20.7465 8.976C20.5225 8.912 20.2425 8.88 19.9065 8.88C19.4745 8.88 19.0825 8.968 18.7305 9.144C18.3785 9.304 18.0745 9.536 17.8185 9.84C17.5785 10.144 17.3865 10.504 17.2425 10.92C17.1145 11.32 17.0505 11.76 17.0505 12.24V18H13.9065V6.24ZM30.4592 16.752H30.2672C29.8992 17.2 29.4512 17.584 28.9232 17.904C28.4112 18.224 27.7472 18.384 26.9312 18.384C26.3232 18.384 25.7472 18.28 25.2032 18.072C24.6752 17.88 24.2112 17.608 23.8112 17.256C23.4112 16.904 23.0992 16.48 22.8752 15.984C22.6512 15.488 22.5392 14.944 22.5392 14.352C22.5392 13.744 22.6592 13.2 22.8992 12.72C23.1392 12.224 23.4752 11.8 23.9072 11.448C24.3392 11.096 24.8432 10.832 25.4192 10.656C26.0112 10.464 26.6512 10.368 27.3392 10.368C28.1072 10.368 28.7392 10.432 29.2352 10.56C29.7312 10.672 30.1392 10.792 30.4592 10.92V10.56C30.4592 9.936 30.2112 9.424 29.7152 9.024C29.2192 8.608 28.6032 8.4 27.8672 8.4C26.7792 8.4 25.8592 8.856 25.1072 9.768L22.8272 8.208C24.0752 6.64 25.7792 5.856 27.9392 5.856C29.7632 5.856 31.1552 6.288 32.1152 7.152C33.0752 8 33.5552 9.264 33.5552 10.944V18H30.4592V16.752ZM30.4592 13.224C30.0912 13.048 29.7072 12.912 29.3072 12.816C28.9232 12.704 28.4992 12.648 28.0352 12.648C27.2832 12.648 26.6992 12.816 26.2832 13.152C25.8832 13.472 25.6832 13.872 25.6832 14.352C25.6832 14.832 25.8752 15.216 26.2592 15.504C26.6592 15.792 27.1152 15.936 27.6272 15.936C28.0432 15.936 28.4272 15.864 28.7792 15.72C29.1312 15.56 29.4272 15.36 29.6672 15.12C29.9232 14.864 30.1152 14.576 30.2432 14.256C30.3872 13.92 30.4592 13.576 30.4592 13.224ZM39.0069 7.776H39.1989C39.5669 7.184 40.0629 6.72 40.6869 6.384C41.3109 6.032 42.0229 5.856 42.8229 5.856C43.5589 5.856 44.2069 5.976 44.7669 6.216C45.3269 6.456 45.7829 6.8 46.1349 7.248C46.5029 7.68 46.7749 8.208 46.9509 8.832C47.1429 9.44 47.2389 10.12 47.2389 10.872V18H44.0949V11.256C44.0949 10.408 43.9029 9.784 43.5189 9.384C43.1509 8.968 42.6069 8.76 41.8869 8.76C41.4549 8.76 41.0709 8.856 40.7349 9.048C40.4149 9.224 40.1349 9.472 39.8949 9.792C39.6709 10.096 39.4949 10.464 39.3669 10.896C39.2549 11.312 39.1989 11.76 39.1989 12.24V18H36.0549V6.24H39.0069V7.776ZM54.375 18.384C53.607 18.384 52.919 18.288 52.311 18.096C51.719 17.904 51.199 17.656 50.751 17.352C50.319 17.032 49.951 16.672 49.647 16.272C49.343 15.856 49.111 15.44 48.951 15.024L51.759 13.824C52.031 14.432 52.391 14.888 52.839 15.192C53.303 15.48 53.815 15.624 54.375 15.624C54.951 15.624 55.407 15.52 55.743 15.312C56.079 15.104 56.247 14.856 56.247 14.568C56.247 14.248 56.103 13.992 55.815 13.8C55.543 13.592 55.063 13.408 54.375 13.248L52.719 12.888C52.351 12.808 51.967 12.68 51.567 12.504C51.183 12.328 50.831 12.104 50.511 11.832C50.191 11.56 49.927 11.232 49.719 10.848C49.511 10.464 49.407 10.016 49.407 9.504C49.407 8.928 49.527 8.416 49.767 7.968C50.023 7.52 50.367 7.144 50.799 6.84C51.231 6.52 51.735 6.28 52.311 6.12C52.903 5.944 53.535 5.856 54.207 5.856C55.327 5.856 56.327 6.08 57.207 6.528C58.087 6.96 58.735 7.656 59.151 8.616L56.439 9.72C56.215 9.256 55.887 8.92 55.455 8.712C55.023 8.504 54.591 8.4 54.159 8.4C53.711 8.4 53.319 8.496 52.983 8.688C52.647 8.864 52.479 9.096 52.479 9.384C52.479 9.656 52.615 9.872 52.887 10.032C53.175 10.192 53.559 10.336 54.039 10.464L55.839 10.896C57.039 11.184 57.927 11.648 58.503 12.288C59.095 12.912 59.391 13.656 59.391 14.52C59.391 15.032 59.271 15.52 59.031 15.984C58.791 16.448 58.447 16.864 57.999 17.232C57.567 17.584 57.039 17.864 56.415 18.072C55.807 18.28 55.127 18.384 54.375 18.384ZM61.3206 18V0.816H64.4646V18H61.3206ZM74.2873 16.752H74.0953C73.7273 17.2 73.2793 17.584 72.7513 17.904C72.2393 18.224 71.5753 18.384 70.7593 18.384C70.1513 18.384 69.5753 18.28 69.0313 18.072C68.5033 17.88 68.0393 17.608 67.6393 17.256C67.2393 16.904 66.9273 16.48 66.7033 15.984C66.4793 15.488 66.3673 14.944 66.3673 14.352C66.3673 13.744 66.4873 13.2 66.7273 12.72C66.9673 12.224 67.3033 11.8 67.7353 11.448C68.1673 11.096 68.6713 10.832 69.2473 10.656C69.8393 10.464 70.4793 10.368 71.1673 10.368C71.9353 10.368 72.5673 10.432 73.0633 10.56C73.5593 10.672 73.9673 10.792 74.2873 10.92V10.56C74.2873 9.936 74.0393 9.424 73.5433 9.024C73.0473 8.608 72.4313 8.4 71.6953 8.4C70.6073 8.4 69.6873 8.856 68.9353 9.768L66.6553 8.208C67.9033 6.64 69.6073 5.856 71.7673 5.856C73.5913 5.856 74.9833 6.288 75.9433 7.152C76.9033 8 77.3833 9.264 77.3833 10.944V18H74.2873V16.752ZM74.2873 13.224C73.9193 13.048 73.5353 12.912 73.1353 12.816C72.7513 12.704 72.3273 12.648 71.8633 12.648C71.1113 12.648 70.5273 12.816 70.1113 13.152C69.7113 13.472 69.5113 13.872 69.5113 14.352C69.5113 14.832 69.7033 15.216 70.0873 15.504C70.4873 15.792 70.9433 15.936 71.4553 15.936C71.8713 15.936 72.2553 15.864 72.6073 15.72C72.9593 15.56 73.2553 15.36 73.4953 15.12C73.7513 14.864 73.9433 14.576 74.0713 14.256C74.2153 13.92 74.2873 13.576 74.2873 13.224ZM80.9447 8.928H78.8807V6.24H80.9447V2.64H84.0887V6.24H86.9687V8.928H84.0887V13.488C84.0887 13.76 84.1127 14.016 84.1607 14.256C84.2247 14.48 84.3367 14.672 84.4967 14.832C84.7207 15.088 85.0407 15.216 85.4567 15.216C85.7287 15.216 85.9447 15.192 86.1047 15.144C86.2647 15.08 86.4167 15 86.5607 14.904L87.4487 17.664C87.0807 17.84 86.6807 17.968 86.2487 18.048C85.8327 18.144 85.3687 18.192 84.8567 18.192C84.2647 18.192 83.7287 18.104 83.2487 17.928C82.7847 17.736 82.3927 17.48 82.0727 17.16C81.3207 16.44 80.9447 15.416 80.9447 14.088V8.928ZM100.3 15.168C99.7563 16.128 99.0203 16.904 98.0923 17.496C97.1803 18.088 96.0603 18.384 94.7323 18.384C93.8363 18.384 93.0043 18.232 92.2363 17.928C91.4843 17.608 90.8283 17.168 90.2683 16.608C89.7083 16.048 89.2683 15.392 88.9483 14.64C88.6443 13.872 88.4923 13.032 88.4923 12.12C88.4923 11.272 88.6443 10.472 88.9483 9.72C89.2523 8.952 89.6763 8.288 90.2203 7.728C90.7643 7.152 91.4043 6.696 92.1403 6.36C92.8923 6.024 93.7163 5.856 94.6123 5.856C95.5563 5.856 96.3963 6.016 97.1323 6.336C97.8683 6.64 98.4843 7.072 98.9803 7.632C99.4763 8.176 99.8523 8.824 100.108 9.576C100.364 10.328 100.492 11.144 100.492 12.024C100.492 12.136 100.492 12.232 100.492 12.312C100.476 12.408 100.468 12.496 100.468 12.576C100.452 12.656 100.444 12.744 100.444 12.84H91.5883C91.6523 13.32 91.7803 13.736 91.9723 14.088C92.1803 14.424 92.4283 14.712 92.7163 14.952C93.0203 15.176 93.3483 15.344 93.7003 15.456C94.0523 15.552 94.4123 15.6 94.7803 15.6C95.5003 15.6 96.0923 15.44 96.5563 15.12C97.0363 14.784 97.4123 14.368 97.6843 13.872L100.3 15.168ZM97.4443 10.608C97.4283 10.4 97.3563 10.168 97.2283 9.912C97.1163 9.656 96.9403 9.416 96.7003 9.192C96.4763 8.968 96.1883 8.784 95.8363 8.64C95.5003 8.496 95.0923 8.424 94.6123 8.424C93.9403 8.424 93.3483 8.616 92.8363 9C92.3243 9.384 91.9643 9.92 91.7563 10.608H97.4443Z" fill="#4285F4"/>
<path d="M110.366 18H108.158V0.816H110.366V18ZM130.419 9.408C130.419 11.952 129.571 14.08 127.875 15.792C126.163 17.52 124.067 18.384 121.587 18.384C119.091 18.384 116.995 17.52 115.299 15.792C113.603 14.08 112.755 11.952 112.755 9.408C112.755 6.864 113.603 4.736 115.299 3.024C116.995 1.296 119.091 0.431999 121.587 0.431999C124.083 0.431999 126.179 1.304 127.875 3.048C129.571 4.76 130.419 6.88 130.419 9.408ZM115.011 9.408C115.011 11.392 115.635 13.032 116.883 14.328C118.147 15.624 119.715 16.272 121.587 16.272C123.459 16.272 125.019 15.624 126.267 14.328C127.531 13.048 128.163 11.408 128.163 9.408C128.163 7.408 127.531 5.768 126.267 4.488C125.019 3.192 123.459 2.544 121.587 2.544C119.715 2.544 118.147 3.192 116.883 4.488C115.635 5.784 115.011 7.424 115.011 9.408Z" fill="#666464"/>
</svg>
