<svg width="172" height="24" viewBox="0 0 172 24" fill="none" xmlns="http://www.w3.org/2000/svg">
<path d="M0.728 0.816H11.624V3.888H3.968V8.064H10.856V11.136H3.968V18H0.728V0.816ZM46.8071 23.568C45.9751 23.568 45.2311 23.456 44.5751 23.232C43.9351 23.024 43.3751 22.744 42.8951 22.392C42.4151 22.056 42.0151 21.68 41.6951 21.264C41.3751 20.848 41.1431 20.432 40.9991 20.016L43.9991 18.816C44.2231 19.44 44.5911 19.92 45.1031 20.256C45.6151 20.608 46.1831 20.784 46.8071 20.784C47.7991 20.784 48.5831 20.472 49.1591 19.848C49.7351 19.24 50.0231 18.384 50.0231 17.28V16.464H49.8311C49.4631 16.976 48.9751 17.384 48.3671 17.688C47.7751 17.976 47.0711 18.12 46.2551 18.12C45.5511 18.12 44.8631 17.976 44.1911 17.688C43.5351 17.4 42.9511 16.992 42.4391 16.464C41.9271 15.92 41.5111 15.272 41.1911 14.52C40.8711 13.768 40.7111 12.928 40.7111 12C40.7111 11.072 40.8711 10.232 41.1911 9.48C41.5111 8.712 41.9271 8.064 42.4391 7.536C42.9511 6.992 43.5351 6.576 44.1911 6.288C44.8631 6 45.5511 5.856 46.2551 5.856C47.0711 5.856 47.7751 6.008 48.3671 6.312C48.9751 6.6 49.4631 7 49.8311 7.512H50.0231V6.24H53.0231V17.16C53.0231 18.152 52.8711 19.04 52.5671 19.824C52.2631 20.624 51.8391 21.296 51.2951 21.84C50.7511 22.4 50.0951 22.824 49.3271 23.112C48.5751 23.416 47.7351 23.568 46.8071 23.568ZM46.9271 15.288C47.3111 15.288 47.6871 15.216 48.0551 15.072C48.4391 14.928 48.7751 14.72 49.0631 14.448C49.3511 14.16 49.5831 13.816 49.7591 13.416C49.9351 13 50.0231 12.528 50.0231 12C50.0231 11.472 49.9351 11 49.7591 10.584C49.5831 10.168 49.3511 9.824 49.0631 9.552C48.7751 9.264 48.4391 9.048 48.0551 8.904C47.6871 8.76 47.3111 8.688 46.9271 8.688C46.5431 8.688 46.1671 8.76 45.7991 8.904C45.4311 9.048 45.1031 9.264 44.8151 9.552C44.5271 9.84 44.2951 10.192 44.1191 10.608C43.9431 11.008 43.8551 11.472 43.8551 12C43.8551 12.528 43.9431 13 44.1191 13.416C44.2951 13.816 44.5271 14.16 44.8151 14.448C45.1031 14.72 45.4311 14.928 45.7991 15.072C46.1671 15.216 46.5431 15.288 46.9271 15.288Z" fill="#4285F4"/>
<path d="M19.2948 5.856C20.2068 5.856 21.0388 6.016 21.7908 6.336C22.5588 6.64 23.2148 7.072 23.7588 7.632C24.3188 8.176 24.7508 8.832 25.0548 9.6C25.3748 10.368 25.5348 11.208 25.5348 12.12C25.5348 13.032 25.3748 13.872 25.0548 14.64C24.7508 15.408 24.3188 16.072 23.7588 16.632C23.2148 17.176 22.5588 17.608 21.7908 17.928C21.0388 18.232 20.2068 18.384 19.2948 18.384C18.3828 18.384 17.5428 18.232 16.7748 17.928C16.0228 17.608 15.3668 17.176 14.8068 16.632C14.2628 16.072 13.8308 15.408 13.5108 14.64C13.2068 13.872 13.0548 13.032 13.0548 12.12C13.0548 11.208 13.2068 10.368 13.5108 9.6C13.8308 8.832 14.2628 8.176 14.8068 7.632C15.3668 7.072 16.0228 6.64 16.7748 6.336C17.5428 6.016 18.3828 5.856 19.2948 5.856ZM19.2948 15.48C19.6948 15.48 20.0788 15.408 20.4468 15.264C20.8308 15.104 21.1668 14.88 21.4548 14.592C21.7428 14.304 21.9668 13.952 22.1268 13.536C22.3028 13.12 22.3908 12.648 22.3908 12.12C22.3908 11.592 22.3028 11.12 22.1268 10.704C21.9668 10.288 21.7428 9.936 21.4548 9.648C21.1668 9.36 20.8308 9.144 20.4468 9C20.0788 8.84 19.6948 8.76 19.2948 8.76C18.8788 8.76 18.4868 8.84 18.1188 9C17.7508 9.144 17.4228 9.36 17.1348 9.648C16.8468 9.936 16.6148 10.288 16.4388 10.704C16.2788 11.12 16.1988 11.592 16.1988 12.12C16.1988 12.648 16.2788 13.12 16.4388 13.536C16.6148 13.952 16.8468 14.304 17.1348 14.592C17.4228 14.88 17.7508 15.104 18.1188 15.264C18.4868 15.408 18.8788 15.48 19.2948 15.48ZM72.6753 15.168C72.1313 16.128 71.3953 16.904 70.4673 17.496C69.5553 18.088 68.4353 18.384 67.1073 18.384C66.2113 18.384 65.3793 18.232 64.6113 17.928C63.8593 17.608 63.2033 17.168 62.6433 16.608C62.0833 16.048 61.6433 15.392 61.3233 14.64C61.0193 13.872 60.8673 13.032 60.8673 12.12C60.8673 11.272 61.0193 10.472 61.3233 9.72C61.6273 8.952 62.0513 8.288 62.5953 7.728C63.1393 7.152 63.7793 6.696 64.5153 6.36C65.2673 6.024 66.0913 5.856 66.9873 5.856C67.9313 5.856 68.7713 6.016 69.5073 6.336C70.2433 6.64 70.8593 7.072 71.3553 7.632C71.8513 8.176 72.2273 8.824 72.4833 9.576C72.7393 10.328 72.8673 11.144 72.8673 12.024C72.8673 12.136 72.8673 12.232 72.8673 12.312C72.8513 12.408 72.8433 12.496 72.8433 12.576C72.8273 12.656 72.8193 12.744 72.8193 12.84H63.9633C64.0273 13.32 64.1553 13.736 64.3473 14.088C64.5553 14.424 64.8033 14.712 65.0913 14.952C65.3953 15.176 65.7233 15.344 66.0753 15.456C66.4273 15.552 66.7873 15.6 67.1553 15.6C67.8753 15.6 68.4673 15.44 68.9313 15.12C69.4113 14.784 69.7873 14.368 70.0593 13.872L72.6753 15.168ZM69.8193 10.608C69.8033 10.4 69.7313 10.168 69.6033 9.912C69.4913 9.656 69.3153 9.416 69.0753 9.192C68.8513 8.968 68.5633 8.784 68.2113 8.64C67.8753 8.496 67.4673 8.424 66.9873 8.424C66.3153 8.424 65.7233 8.616 65.2113 9C64.6993 9.384 64.3393 9.92 64.1313 10.608H69.8193Z" fill="#EA4335"/>
<path d="M33.1229 5.856C34.0349 5.856 34.8669 6.016 35.6189 6.336C36.3869 6.64 37.0429 7.072 37.5869 7.632C38.1469 8.176 38.5789 8.832 38.8829 9.6C39.2029 10.368 39.3629 11.208 39.3629 12.12C39.3629 13.032 39.2029 13.872 38.8829 14.64C38.5789 15.408 38.1469 16.072 37.5869 16.632C37.0429 17.176 36.3869 17.608 35.6189 17.928C34.8669 18.232 34.0349 18.384 33.1229 18.384C32.2109 18.384 31.3709 18.232 30.6029 17.928C29.8509 17.608 29.1949 17.176 28.6349 16.632C28.0909 16.072 27.6589 15.408 27.3389 14.64C27.0349 13.872 26.8829 13.032 26.8829 12.12C26.8829 11.208 27.0349 10.368 27.3389 9.6C27.6589 8.832 28.0909 8.176 28.6349 7.632C29.1949 7.072 29.8509 6.64 30.6029 6.336C31.3709 6.016 32.2109 5.856 33.1229 5.856ZM33.1229 15.48C33.5229 15.48 33.9069 15.408 34.2749 15.264C34.6589 15.104 34.9949 14.88 35.2829 14.592C35.5709 14.304 35.7949 13.952 35.9549 13.536C36.1309 13.12 36.2189 12.648 36.2189 12.12C36.2189 11.592 36.1309 11.12 35.9549 10.704C35.7949 10.288 35.5709 9.936 35.2829 9.648C34.9949 9.36 34.6589 9.144 34.2749 9C33.9069 8.84 33.5229 8.76 33.1229 8.76C32.7069 8.76 32.3149 8.84 31.9469 9C31.5789 9.144 31.2509 9.36 30.9629 9.648C30.6749 9.936 30.4429 10.288 30.2669 10.704C30.1069 11.12 30.0269 11.592 30.0269 12.12C30.0269 12.648 30.1069 13.12 30.2669 13.536C30.4429 13.952 30.6749 14.304 30.9629 14.592C31.2509 14.88 31.5789 15.104 31.9469 15.264C32.3149 15.408 32.7069 15.48 33.1229 15.48Z" fill="#FBBC05"/>
<path d="M55.7034 18V0.816H58.8474V18H55.7034Z" fill="#34A853"/>
<path d="M86.3887 2.928V18H84.1807V2.928H79.3807V0.816H91.1887V2.928H86.3887ZM93.8879 18H91.6799V6.24H93.7919V8.16H93.8879C94.1119 7.536 94.5679 7.008 95.2559 6.576C95.9599 6.128 96.6479 5.904 97.3199 5.904C97.9599 5.904 98.5039 6 98.9519 6.192L98.2799 8.328C98.0079 8.216 97.5759 8.16 96.9839 8.16C96.1519 8.16 95.4239 8.496 94.7999 9.168C94.1919 9.84 93.8879 10.624 93.8879 11.52V18ZM101.538 14.4C101.538 14.976 101.778 15.456 102.258 15.84C102.754 16.224 103.33 16.416 103.986 16.416C104.914 16.416 105.738 16.072 106.458 15.384C107.194 14.696 107.562 13.888 107.562 12.96C106.874 12.416 105.914 12.144 104.682 12.144C103.786 12.144 103.034 12.36 102.426 12.792C101.834 13.224 101.538 13.76 101.538 14.4ZM104.394 5.856C106.026 5.856 107.314 6.296 108.258 7.176C109.202 8.04 109.674 9.232 109.674 10.752V18H107.562V16.368H107.466C106.554 17.712 105.338 18.384 103.818 18.384C102.522 18.384 101.434 18 100.554 17.232C99.6899 16.464 99.2579 15.504 99.2579 14.352C99.2579 13.136 99.7139 12.168 100.626 11.448C101.554 10.728 102.786 10.368 104.322 10.368C105.634 10.368 106.714 10.608 107.562 11.088V10.584C107.562 9.816 107.258 9.168 106.65 8.64C106.042 8.096 105.33 7.824 104.514 7.824C103.282 7.824 102.306 8.344 101.586 9.384L99.6419 8.16C100.714 6.624 102.298 5.856 104.394 5.856ZM112.164 6.24H114.276V7.872H114.372C114.708 7.296 115.22 6.816 115.908 6.432C116.612 6.048 117.34 5.856 118.092 5.856C119.532 5.856 120.636 6.272 121.404 7.104C122.188 7.92 122.58 9.088 122.58 10.608V18H120.372V10.752C120.324 8.832 119.356 7.872 117.468 7.872C116.588 7.872 115.852 8.232 115.26 8.952C114.668 9.656 114.372 10.504 114.372 11.496V18H112.164V6.24ZM134.055 14.736C134.055 15.76 133.607 16.624 132.711 17.328C131.815 18.032 130.687 18.384 129.327 18.384C128.143 18.384 127.103 18.08 126.207 17.472C125.311 16.848 124.671 16.032 124.287 15.024L126.255 14.184C126.543 14.888 126.959 15.44 127.503 15.84C128.063 16.224 128.671 16.416 129.327 16.416C130.031 16.416 130.615 16.264 131.079 15.96C131.559 15.656 131.799 15.296 131.799 14.88C131.799 14.128 131.223 13.576 130.071 13.224L128.055 12.72C125.767 12.144 124.623 11.04 124.623 9.408C124.623 8.336 125.055 7.48 125.919 6.84C126.799 6.184 127.919 5.856 129.279 5.856C130.319 5.856 131.255 6.104 132.087 6.6C132.935 7.096 133.527 7.76 133.863 8.592L131.895 9.408C131.671 8.912 131.303 8.528 130.791 8.256C130.295 7.968 129.735 7.824 129.111 7.824C128.535 7.824 128.015 7.968 127.551 8.256C127.103 8.544 126.879 8.896 126.879 9.312C126.879 9.984 127.511 10.464 128.775 10.752L130.551 11.208C132.887 11.784 134.055 12.96 134.055 14.736ZM138.185 0.816V18H135.977V0.816H138.185ZM142.366 14.4C142.366 14.976 142.606 15.456 143.086 15.84C143.582 16.224 144.158 16.416 144.814 16.416C145.742 16.416 146.566 16.072 147.286 15.384C148.022 14.696 148.39 13.888 148.39 12.96C147.702 12.416 146.742 12.144 145.51 12.144C144.614 12.144 143.862 12.36 143.254 12.792C142.662 13.224 142.366 13.76 142.366 14.4ZM145.222 5.856C146.854 5.856 148.142 6.296 149.086 7.176C150.03 8.04 150.502 9.232 150.502 10.752V18H148.39V16.368H148.294C147.382 17.712 146.166 18.384 144.646 18.384C143.35 18.384 142.262 18 141.382 17.232C140.518 16.464 140.086 15.504 140.086 14.352C140.086 13.136 140.542 12.168 141.454 11.448C142.382 10.728 143.614 10.368 145.15 10.368C146.462 10.368 147.542 10.608 148.39 11.088V10.584C148.39 9.816 148.086 9.168 147.478 8.64C146.87 8.096 146.158 7.824 145.342 7.824C144.11 7.824 143.134 8.344 142.414 9.384L140.47 8.16C141.542 6.624 143.126 5.856 145.222 5.856ZM157.414 18.192C156.454 18.192 155.654 17.896 155.014 17.304C154.39 16.712 154.07 15.888 154.054 14.832V8.256H151.99V6.24H154.054V2.64H156.262V6.24H159.142V8.256H156.262V14.112C156.262 14.896 156.414 15.432 156.718 15.72C157.022 15.992 157.366 16.128 157.75 16.128C157.926 16.128 158.094 16.112 158.254 16.08C158.43 16.032 158.59 15.976 158.734 15.912L159.43 17.88C158.854 18.088 158.182 18.192 157.414 18.192ZM166.405 18.384C164.677 18.384 163.253 17.792 162.133 16.608C161.013 15.424 160.453 13.928 160.453 12.12C160.453 10.328 160.997 8.84 162.085 7.656C163.173 6.456 164.565 5.856 166.261 5.856C168.005 5.856 169.389 6.424 170.413 7.56C171.453 8.68 171.973 10.256 171.973 12.288L171.949 12.528H162.709C162.741 13.68 163.125 14.608 163.861 15.312C164.597 16.016 165.477 16.368 166.501 16.368C167.909 16.368 169.013 15.664 169.813 14.256L171.781 15.216C171.253 16.208 170.517 16.984 169.573 17.544C168.645 18.104 167.589 18.384 166.405 18.384ZM162.877 10.704H169.621C169.557 9.888 169.221 9.216 168.613 8.688C168.021 8.144 167.221 7.872 166.213 7.872C165.381 7.872 164.661 8.128 164.053 8.64C163.461 9.152 163.069 9.84 162.877 10.704Z" fill="#666464"/>
</svg>
